<svg xmlns="http://www.w3.org/2000/svg" xmlns:xlink="http://www.w3.org/1999/xlink" width="500" zoomAndPan="magnify" viewBox="0 0 375 374.999991" height="500" preserveAspectRatio="xMidYMid meet" version="1.0"><defs><clipPath id="04d56628a8"><path d="M 180 200 L 281 200 L 281 270.355469 L 180 270.355469 Z M 180 200 " clip-rule="nonzero"/></clipPath><clipPath id="c469d9c2a2"><path d="M 166 79.855469 L 259 79.855469 L 259 154 L 166 154 Z M 166 79.855469 " clip-rule="nonzero"/></clipPath><clipPath id="bf37eee70d"><path d="M 166.28125 149.066406 L 199.28125 149.066406 L 199.28125 203.816406 L 166.28125 203.816406 Z M 166.28125 149.066406 " clip-rule="nonzero"/></clipPath><clipPath id="4aff7ef567"><path d="M 168 150 L 196 150 L 196 200 L 168 200 Z M 168 150 " clip-rule="nonzero"/></clipPath><clipPath id="5893303782"><path d="M 182.226562 199.589844 C 177.660156 199.589844 173.382812 199.457031 170.597656 199.34375 L 170.589844 199.34375 C 169.457031 199.285156 168.242188 199.046875 168.167969 196.964844 C 168.0625 194.140625 168.007812 191.023438 168.007812 187.707031 C 168.007812 180.199219 168.351562 165.738281 170.644531 153.238281 L 170.648438 153.222656 C 171.019531 151.472656 172.035156 151.125 172.613281 151.074219 C 174.609375 150.871094 178.800781 150.828125 181.964844 150.828125 C 187.484375 150.828125 191.230469 150.929688 193.417969 151.136719 C 194.394531 151.21875 194.976562 151.792969 194.976562 152.671875 C 194.976562 153.601562 193.917969 157.996094 193.207031 160.019531 L 193.195312 160.054688 L 193.179688 160.085938 C 192.851562 160.765625 192.363281 161.109375 191.734375 161.109375 C 191.339844 161.109375 190.9375 160.949219 190.375 160.726562 C 190.304688 160.699219 190.230469 160.667969 190.152344 160.640625 C 188.632812 160.101562 186.160156 159.386719 182.226562 159.386719 C 180.339844 159.386719 179.660156 159.726562 179.148438 160.316406 C 178.394531 161.4375 177.804688 165.175781 177.804688 168.867188 C 177.804688 169.433594 177.878906 169.820312 178.023438 170.015625 C 178.070312 170.078125 178.179688 170.222656 178.65625 170.222656 C 179.367188 170.222656 180.234375 170.042969 181.238281 169.832031 C 182.652344 169.539062 184.414062 169.175781 186.480469 169.175781 C 190.535156 169.175781 191.140625 170.640625 191.140625 171.515625 C 191.140625 172.652344 190.394531 176.261719 189.855469 178.03125 C 189.597656 178.945312 189.152344 179.335938 188.371094 179.335938 C 188.035156 179.335938 187.589844 179.210938 186.910156 179.027344 C 185.773438 178.714844 184.21875 178.289062 182.542969 178.289062 C 178.648438 178.289062 177.332031 179.65625 177.332031 183.707031 C 177.332031 186.707031 177.535156 188.339844 178.015625 189.160156 C 178.402344 189.824219 179.027344 190.046875 180.496094 190.046875 C 186.015625 190.046875 189.855469 188.457031 191.25 187.773438 L 191.261719 187.765625 C 191.40625 187.699219 191.53125 187.632812 191.636719 187.574219 C 191.925781 187.421875 192.199219 187.277344 192.574219 187.277344 C 192.945312 187.277344 193.601562 187.429688 193.898438 188.453125 C 194.457031 190.164062 195.082031 195.371094 195.082031 197.128906 C 195.082031 198.375 194.296875 199.199219 193.035156 199.28125 C 189.824219 199.464844 186.078125 199.527344 182.453125 199.589844 Z M 182.226562 199.589844 " clip-rule="nonzero"/></clipPath><linearGradient x1="247.24001" gradientTransform="matrix(0.0617399, 0, 0, 0.0615726, 166.281098, 149.102166)" y1="28.000099" x2="247.24001" gradientUnits="userSpaceOnUse" y2="820.000088" id="b32fead0d7"><stop stop-opacity="1" stop-color="rgb(18.798828%, 59.999084%, 0%)" offset="0"/><stop stop-opacity="1" stop-color="rgb(18.768311%, 59.901428%, 0%)" offset="0.0078125"/><stop stop-opacity="1" stop-color="rgb(18.707275%, 59.70459%, 0%)" offset="0.015625"/><stop stop-opacity="1" stop-color="rgb(18.64624%, 59.509277%, 0%)" offset="0.0234375"/><stop stop-opacity="1" stop-color="rgb(18.585205%, 59.312439%, 0%)" offset="0.03125"/><stop stop-opacity="1" stop-color="rgb(18.525696%, 59.117126%, 0%)" offset="0.0390625"/><stop stop-opacity="1" stop-color="rgb(18.464661%, 58.920288%, 0%)" offset="0.046875"/><stop stop-opacity="1" stop-color="rgb(18.403625%, 58.724976%, 0%)" offset="0.0546875"/><stop stop-opacity="1" stop-color="rgb(18.34259%, 58.528137%, 0%)" offset="0.0625"/><stop stop-opacity="1" stop-color="rgb(18.281555%, 58.331299%, 0%)" offset="0.0703125"/><stop stop-opacity="1" stop-color="rgb(18.22052%, 58.135986%, 0%)" offset="0.078125"/><stop stop-opacity="1" stop-color="rgb(18.159485%, 57.939148%, 0%)" offset="0.0859375"/><stop stop-opacity="1" stop-color="rgb(18.09845%, 57.743835%, 0%)" offset="0.09375"/><stop stop-opacity="1" stop-color="rgb(18.037415%, 57.546997%, 0%)" offset="0.101562"/><stop stop-opacity="1" stop-color="rgb(17.976379%, 57.351685%, 0%)" offset="0.109375"/><stop stop-opacity="1" stop-color="rgb(17.915344%, 57.154846%, 0%)" offset="0.117188"/><stop stop-opacity="1" stop-color="rgb(17.854309%, 56.959534%, 0%)" offset="0.125"/><stop stop-opacity="1" stop-color="rgb(17.793274%, 56.762695%, 0%)" offset="0.132813"/><stop stop-opacity="1" stop-color="rgb(17.732239%, 56.567383%, 0%)" offset="0.140625"/><stop stop-opacity="1" stop-color="rgb(17.671204%, 56.370544%, 0%)" offset="0.148438"/><stop stop-opacity="1" stop-color="rgb(17.610168%, 56.175232%, 0%)" offset="0.15625"/><stop stop-opacity="1" stop-color="rgb(17.550659%, 55.978394%, 0%)" offset="0.164063"/><stop stop-opacity="1" stop-color="rgb(17.489624%, 55.783081%, 0%)" offset="0.171875"/><stop stop-opacity="1" stop-color="rgb(17.428589%, 55.586243%, 0%)" offset="0.179688"/><stop stop-opacity="1" stop-color="rgb(17.367554%, 55.39093%, 0%)" offset="0.1875"/><stop stop-opacity="1" stop-color="rgb(17.306519%, 55.194092%, 0%)" offset="0.195313"/><stop stop-opacity="1" stop-color="rgb(17.245483%, 54.998779%, 0%)" offset="0.203125"/><stop stop-opacity="1" stop-color="rgb(17.184448%, 54.801941%, 0%)" offset="0.210938"/><stop stop-opacity="1" stop-color="rgb(17.123413%, 54.606628%, 0%)" offset="0.21875"/><stop stop-opacity="1" stop-color="rgb(17.062378%, 54.40979%, 0%)" offset="0.226563"/><stop stop-opacity="1" stop-color="rgb(17.001343%, 54.214478%, 0%)" offset="0.234375"/><stop stop-opacity="1" stop-color="rgb(16.940308%, 54.017639%, 0%)" offset="0.242188"/><stop stop-opacity="1" stop-color="rgb(16.879272%, 53.822327%, 0%)" offset="0.25"/><stop stop-opacity="1" stop-color="rgb(16.818237%, 53.625488%, 0%)" offset="0.257812"/><stop stop-opacity="1" stop-color="rgb(16.757202%, 53.430176%, 0%)" offset="0.265625"/><stop stop-opacity="1" stop-color="rgb(16.696167%, 53.233337%, 0%)" offset="0.273438"/><stop stop-opacity="1" stop-color="rgb(16.636658%, 53.038025%, 0%)" offset="0.28125"/><stop stop-opacity="1" stop-color="rgb(16.575623%, 52.841187%, 0%)" offset="0.289062"/><stop stop-opacity="1" stop-color="rgb(16.514587%, 52.645874%, 0%)" offset="0.296875"/><stop stop-opacity="1" stop-color="rgb(16.453552%, 52.449036%, 0%)" offset="0.304688"/><stop stop-opacity="1" stop-color="rgb(16.392517%, 52.253723%, 0%)" offset="0.3125"/><stop stop-opacity="1" stop-color="rgb(16.331482%, 52.056885%, 0%)" offset="0.320313"/><stop stop-opacity="1" stop-color="rgb(16.270447%, 51.861572%, 0%)" offset="0.328125"/><stop stop-opacity="1" stop-color="rgb(16.209412%, 51.664734%, 0%)" offset="0.335938"/><stop stop-opacity="1" stop-color="rgb(16.148376%, 51.469421%, 0%)" offset="0.34375"/><stop stop-opacity="1" stop-color="rgb(16.087341%, 51.272583%, 0%)" offset="0.351563"/><stop stop-opacity="1" stop-color="rgb(16.026306%, 51.077271%, 0%)" offset="0.359375"/><stop stop-opacity="1" stop-color="rgb(15.965271%, 50.880432%, 0%)" offset="0.367188"/><stop stop-opacity="1" stop-color="rgb(15.904236%, 50.68512%, 0%)" offset="0.375"/><stop stop-opacity="1" stop-color="rgb(15.843201%, 50.488281%, 0%)" offset="0.382813"/><stop stop-opacity="1" stop-color="rgb(15.782166%, 50.291443%, 0%)" offset="0.390625"/><stop stop-opacity="1" stop-color="rgb(15.72113%, 50.09613%, 0%)" offset="0.398438"/><stop stop-opacity="1" stop-color="rgb(15.661621%, 49.899292%, 0%)" offset="0.40625"/><stop stop-opacity="1" stop-color="rgb(15.600586%, 49.703979%, 0%)" offset="0.414062"/><stop stop-opacity="1" stop-color="rgb(15.539551%, 49.507141%, 0%)" offset="0.421875"/><stop stop-opacity="1" stop-color="rgb(15.478516%, 49.311829%, 0%)" offset="0.429688"/><stop stop-opacity="1" stop-color="rgb(15.41748%, 49.11499%, 0%)" offset="0.4375"/><stop stop-opacity="1" stop-color="rgb(15.356445%, 48.919678%, 0%)" offset="0.445312"/><stop stop-opacity="1" stop-color="rgb(15.29541%, 48.722839%, 0%)" offset="0.453125"/><stop stop-opacity="1" stop-color="rgb(15.234375%, 48.527527%, 0%)" offset="0.460938"/><stop stop-opacity="1" stop-color="rgb(15.17334%, 48.330688%, 0%)" offset="0.46875"/><stop stop-opacity="1" stop-color="rgb(15.112305%, 48.135376%, 0%)" offset="0.476562"/><stop stop-opacity="1" stop-color="rgb(15.05127%, 47.938538%, 0%)" offset="0.484375"/><stop stop-opacity="1" stop-color="rgb(14.990234%, 47.743225%, 0%)" offset="0.492188"/><stop stop-opacity="1" stop-color="rgb(14.929199%, 47.546387%, 0%)" offset="0.5"/><stop stop-opacity="1" stop-color="rgb(14.868164%, 47.351074%, 0%)" offset="0.507813"/><stop stop-opacity="1" stop-color="rgb(14.807129%, 47.154236%, 0%)" offset="0.515625"/><stop stop-opacity="1" stop-color="rgb(14.746094%, 46.958923%, 0%)" offset="0.523438"/><stop stop-opacity="1" stop-color="rgb(14.686584%, 46.762085%, 0%)" offset="0.53125"/><stop stop-opacity="1" stop-color="rgb(14.625549%, 46.566772%, 0%)" offset="0.539062"/><stop stop-opacity="1" stop-color="rgb(14.564514%, 46.369934%, 0%)" offset="0.546875"/><stop stop-opacity="1" stop-color="rgb(14.503479%, 46.174622%, 0%)" offset="0.554688"/><stop stop-opacity="1" stop-color="rgb(14.442444%, 45.977783%, 0%)" offset="0.5625"/><stop stop-opacity="1" stop-color="rgb(14.381409%, 45.782471%, 0%)" offset="0.570312"/><stop stop-opacity="1" stop-color="rgb(14.320374%, 45.585632%, 0%)" offset="0.578125"/><stop stop-opacity="1" stop-color="rgb(14.259338%, 45.39032%, 0%)" offset="0.585937"/><stop stop-opacity="1" stop-color="rgb(14.198303%, 45.193481%, 0%)" offset="0.59375"/><stop stop-opacity="1" stop-color="rgb(14.137268%, 44.998169%, 0%)" offset="0.601563"/><stop stop-opacity="1" stop-color="rgb(14.076233%, 44.801331%, 0%)" offset="0.609375"/><stop stop-opacity="1" stop-color="rgb(14.015198%, 44.606018%, 0%)" offset="0.617188"/><stop stop-opacity="1" stop-color="rgb(13.954163%, 44.40918%, 0%)" offset="0.625"/><stop stop-opacity="1" stop-color="rgb(13.893127%, 44.213867%, 0%)" offset="0.632812"/><stop stop-opacity="1" stop-color="rgb(13.832092%, 44.017029%, 0%)" offset="0.640625"/><stop stop-opacity="1" stop-color="rgb(13.772583%, 43.821716%, 0%)" offset="0.648437"/><stop stop-opacity="1" stop-color="rgb(13.711548%, 43.624878%, 0%)" offset="0.65625"/><stop stop-opacity="1" stop-color="rgb(13.650513%, 43.429565%, 0%)" offset="0.664063"/><stop stop-opacity="1" stop-color="rgb(13.589478%, 43.232727%, 0%)" offset="0.671875"/><stop stop-opacity="1" stop-color="rgb(13.528442%, 43.037415%, 0%)" offset="0.679688"/><stop stop-opacity="1" stop-color="rgb(13.467407%, 42.840576%, 0%)" offset="0.6875"/><stop stop-opacity="1" stop-color="rgb(13.406372%, 42.645264%, 0%)" offset="0.695312"/><stop stop-opacity="1" stop-color="rgb(13.345337%, 42.448425%, 0%)" offset="0.703125"/><stop stop-opacity="1" stop-color="rgb(13.284302%, 42.253113%, 0%)" offset="0.710938"/><stop stop-opacity="1" stop-color="rgb(13.223267%, 42.056274%, 0%)" offset="0.71875"/><stop stop-opacity="1" stop-color="rgb(13.162231%, 41.859436%, 0%)" offset="0.726563"/><stop stop-opacity="1" stop-color="rgb(13.101196%, 41.664124%, 0%)" offset="0.734375"/><stop stop-opacity="1" stop-color="rgb(13.040161%, 41.467285%, 0%)" offset="0.742188"/><stop stop-opacity="1" stop-color="rgb(12.979126%, 41.271973%, 0%)" offset="0.75"/><stop stop-opacity="1" stop-color="rgb(12.918091%, 41.075134%, 0%)" offset="0.757813"/><stop stop-opacity="1" stop-color="rgb(12.857056%, 40.879822%, 0%)" offset="0.765625"/><stop stop-opacity="1" stop-color="rgb(12.797546%, 40.682983%, 0%)" offset="0.773438"/><stop stop-opacity="1" stop-color="rgb(12.736511%, 40.487671%, 0%)" offset="0.78125"/><stop stop-opacity="1" stop-color="rgb(12.675476%, 40.290833%, 0%)" offset="0.789063"/><stop stop-opacity="1" stop-color="rgb(12.614441%, 40.09552%, 0%)" offset="0.796875"/><stop stop-opacity="1" stop-color="rgb(12.553406%, 39.898682%, 0%)" offset="0.804688"/><stop stop-opacity="1" stop-color="rgb(12.492371%, 39.703369%, 0%)" offset="0.8125"/><stop stop-opacity="1" stop-color="rgb(12.431335%, 39.506531%, 0%)" offset="0.820313"/><stop stop-opacity="1" stop-color="rgb(12.3703%, 39.311218%, 0%)" offset="0.828125"/><stop stop-opacity="1" stop-color="rgb(12.309265%, 39.11438%, 0%)" offset="0.835938"/><stop stop-opacity="1" stop-color="rgb(12.24823%, 38.919067%, 0%)" offset="0.84375"/><stop stop-opacity="1" stop-color="rgb(12.187195%, 38.722229%, 0%)" offset="0.851562"/><stop stop-opacity="1" stop-color="rgb(12.12616%, 38.526917%, 0%)" offset="0.859375"/><stop stop-opacity="1" stop-color="rgb(12.065125%, 38.330078%, 0%)" offset="0.867188"/><stop stop-opacity="1" stop-color="rgb(12.004089%, 38.134766%, 0%)" offset="0.875"/><stop stop-opacity="1" stop-color="rgb(11.943054%, 37.937927%, 0%)" offset="0.882813"/><stop stop-opacity="1" stop-color="rgb(11.882019%, 37.742615%, 0%)" offset="0.890625"/><stop stop-opacity="1" stop-color="rgb(11.82251%, 37.545776%, 0%)" offset="0.898438"/><stop stop-opacity="1" stop-color="rgb(11.761475%, 37.350464%, 0%)" offset="0.90625"/><stop stop-opacity="1" stop-color="rgb(11.700439%, 37.153625%, 0%)" offset="0.914062"/><stop stop-opacity="1" stop-color="rgb(11.639404%, 36.958313%, 0%)" offset="0.921875"/><stop stop-opacity="1" stop-color="rgb(11.578369%, 36.761475%, 0%)" offset="0.929688"/><stop stop-opacity="1" stop-color="rgb(11.517334%, 36.566162%, 0%)" offset="0.9375"/><stop stop-opacity="1" stop-color="rgb(11.456299%, 36.369324%, 0%)" offset="0.945312"/><stop stop-opacity="1" stop-color="rgb(11.395264%, 36.174011%, 0%)" offset="0.953125"/><stop stop-opacity="1" stop-color="rgb(11.334229%, 35.977173%, 0%)" offset="0.960937"/><stop stop-opacity="1" stop-color="rgb(11.273193%, 35.78186%, 0%)" offset="0.96875"/><stop stop-opacity="1" stop-color="rgb(11.212158%, 35.585022%, 0%)" offset="0.976563"/><stop stop-opacity="1" stop-color="rgb(11.151123%, 35.389709%, 0%)" offset="0.984375"/><stop stop-opacity="1" stop-color="rgb(11.090088%, 35.192871%, 0%)" offset="0.992188"/><stop stop-opacity="1" stop-color="rgb(11.029053%, 34.997559%, 0%)" offset="1"/></linearGradient></defs><rect x="-37.5" width="450" fill="#ffffff" y="-37.499999" height="449.999989" fill-opacity="1"/><rect x="-37.5" width="450" fill="#ffffff" y="-37.499999" height="449.999989" fill-opacity="1"/><path fill="#1a5e37" d="M 163.441406 214.472656 L 124.980469 214.578125 C 117.007812 225.140625 111.726562 236.148438 116.867188 245.742188 C 122.566406 256.378906 129.367188 258.84375 139.625 258.796875 L 163.441406 258.691406 Z M 163.441406 214.472656 " fill-opacity="1" fill-rule="evenodd"/><path fill="#6eb030" d="M 113.082031 242.949219 C 105.828125 230.367188 98.578125 217.78125 91.324219 205.199219 C 88.105469 199.613281 86.878906 195.246094 88.019531 188.921875 C 90.265625 176.5 99.492188 162.691406 105.628906 152.179688 L 96.597656 146.652344 L 140.039062 142.179688 L 155.761719 182.871094 L 142.859375 174.972656 L 117.015625 216.78125 C 112.558594 223.992188 109.582031 234.402344 113.082031 242.949219 Z M 113.082031 242.949219 " fill-opacity="1" fill-rule="evenodd"/><path fill="#1a5e37" d="M 231.097656 178.464844 L 250.421875 211.769531 C 263.542969 213.40625 275.699219 212.484375 281.425781 203.226562 C 287.769531 192.964844 286.503906 185.832031 281.332031 176.957031 L 269.332031 156.351562 Z M 231.097656 178.464844 " fill-opacity="1" fill-rule="evenodd"/><g clip-path="url(#04d56628a8)"><path fill="#6eb030" d="M 280.902344 207.90625 C 273.648438 220.492188 266.394531 233.074219 259.140625 245.65625 C 255.921875 251.242188 252.757812 254.488281 246.71875 256.660156 C 234.855469 260.925781 218.304688 259.824219 206.148438 259.757812 L 205.882812 270.351562 L 180.296875 234.90625 L 207.617188 200.925781 L 207.238281 216.066406 L 256.308594 217.578125 C 264.773438 217.839844 275.261719 215.214844 280.902344 207.90625 Z M 280.902344 207.90625 " fill-opacity="1" fill-rule="evenodd"/></g><path fill="#1a5e37" d="M 166.136719 137.777344 L 185.273438 104.367188 C 180.125 92.167969 173.253906 82.082031 162.386719 81.742188 C 150.339844 81.367188 144.804688 86.035156 139.71875 94.957031 L 127.902344 115.671875 Z M 166.136719 137.777344 " fill-opacity="1" fill-rule="evenodd"/><g clip-path="url(#c469d9c2a2)"><path fill="#6eb030" d="M 166.695312 79.855469 C 181.199219 79.855469 195.707031 79.859375 210.210938 79.855469 C 216.652344 79.855469 221.042969 80.980469 225.9375 85.132812 C 235.558594 93.289062 242.882812 108.199219 248.902344 118.773438 L 258.195312 113.707031 L 240.339844 153.625 L 197.300781 146.917969 L 210.582031 139.675781 L 187.351562 96.351562 C 183.34375 88.878906 175.832031 81.09375 166.695312 79.855469 Z M 166.695312 79.855469 " fill-opacity="1" fill-rule="evenodd"/></g><g clip-path="url(#bf37eee70d)"><path fill="#164500" d="M 183.460938 203.777344 C 178.84375 203.777344 174.523438 203.644531 171.710938 203.527344 L 171.667969 203.527344 C 170.671875 203.472656 169.386719 203.292969 168.246094 202.351562 C 167.109375 201.417969 166.503906 200.054688 166.441406 198.300781 C 166.335938 195.445312 166.28125 192.292969 166.28125 188.941406 C 166.28125 181.332031 166.628906 166.667969 168.964844 153.9375 L 168.972656 153.890625 L 168.984375 153.839844 C 169.214844 152.769531 169.636719 151.855469 170.242188 151.128906 C 171.085938 150.109375 172.261719 149.484375 173.5625 149.363281 C 175.269531 149.191406 178.511719 149.101562 183.199219 149.101562 C 188.804688 149.101562 192.640625 149.207031 194.921875 149.425781 C 197.425781 149.644531 199.175781 151.484375 199.175781 153.90625 C 199.175781 155.503906 197.886719 160.390625 197.238281 162.226562 L 197.171875 162.421875 L 197.082031 162.609375 C 195.898438 165.035156 193.808594 165.296875 192.96875 165.296875 C 192.011719 165.296875 191.25 164.996094 190.519531 164.707031 C 190.464844 164.6875 190.40625 164.664062 190.347656 164.640625 C 189.03125 164.175781 186.898438 163.574219 183.460938 163.574219 C 183.128906 163.574219 182.886719 163.585938 182.714844 163.601562 C 182.472656 164.445312 182.183594 166.09375 182.0625 168.132812 C 183.574219 167.820312 185.441406 167.453125 187.714844 167.453125 C 189.359375 167.453125 190.753906 167.664062 191.859375 168.085938 C 194.039062 168.914062 195.339844 170.65625 195.339844 172.746094 C 195.339844 174.433594 194.4375 178.441406 193.933594 180.097656 C 193.636719 181.128906 193.152344 181.917969 192.460938 182.511719 C 191.671875 183.179688 190.714844 183.523438 189.605469 183.523438 C 188.871094 183.523438 188.203125 183.339844 187.363281 183.109375 C 186.386719 182.839844 185.050781 182.476562 183.777344 182.476562 C 182.332031 182.476562 181.898438 182.726562 181.851562 182.757812 C 181.820312 182.804688 181.53125 183.28125 181.53125 184.9375 C 181.53125 186.75 181.613281 187.761719 181.695312 188.324219 C 181.707031 188.324219 181.71875 188.324219 181.730469 188.324219 C 186.628906 188.324219 189.96875 186.945312 191.175781 186.351562 L 191.207031 186.335938 L 191.234375 186.324219 C 191.316406 186.285156 191.390625 186.246094 191.480469 186.199219 C 191.90625 185.972656 192.695312 185.554688 193.808594 185.554688 C 194.921875 185.554688 195.894531 185.949219 196.671875 186.667969 C 197.273438 187.226562 197.710938 187.949219 197.96875 188.816406 C 198.632812 190.921875 199.28125 196.34375 199.28125 198.359375 C 199.28125 201.179688 197.296875 203.277344 194.460938 203.464844 L 194.429688 203.464844 C 191.167969 203.652344 187.390625 203.714844 183.738281 203.773438 L 183.492188 203.777344 Z M 183.460938 203.777344 " fill-opacity="1" fill-rule="nonzero"/></g><path fill="#ffffff" d="M 182.226562 200.390625 C 177.648438 200.390625 173.355469 200.257812 170.566406 200.144531 L 170.546875 200.144531 C 169.707031 200.097656 167.472656 199.980469 167.367188 196.992188 C 167.261719 194.160156 167.207031 191.035156 167.207031 187.707031 C 167.207031 180.171875 167.550781 165.65625 169.855469 153.097656 L 169.859375 153.074219 L 169.863281 153.054688 C 170.359375 150.730469 171.882812 150.335938 172.535156 150.277344 C 174.167969 150.113281 177.339844 150.027344 181.964844 150.027344 C 187.507812 150.027344 191.277344 150.128906 193.488281 150.339844 C 194.878906 150.460938 195.777344 151.375 195.777344 152.675781 C 195.777344 153.785156 194.664062 158.292969 193.964844 160.285156 L 193.9375 160.363281 L 193.902344 160.4375 C 193.277344 161.71875 192.273438 161.910156 191.730469 161.910156 C 191.191406 161.910156 190.699219 161.71875 190.078125 161.472656 C 190.011719 161.445312 189.941406 161.417969 189.871094 161.390625 C 188.40625 160.871094 186.023438 160.1875 182.226562 160.1875 C 180.441406 160.1875 180.03125 160.523438 179.789062 160.796875 C 179.210938 161.71875 178.605469 165.125 178.605469 168.867188 C 178.605469 169.140625 178.625 169.316406 178.644531 169.421875 C 178.648438 169.421875 178.652344 169.421875 178.65625 169.421875 C 179.285156 169.421875 180.113281 169.25 181.074219 169.050781 C 182.523438 168.75 184.328125 168.375 186.480469 168.375 C 187.859375 168.375 188.996094 168.542969 189.855469 168.867188 C 190.4375 169.089844 190.90625 169.390625 191.253906 169.765625 C 191.707031 170.253906 191.945312 170.859375 191.945312 171.515625 C 191.945312 172.824219 191.136719 176.578125 190.625 178.257812 C 190.269531 179.503906 189.507812 180.136719 188.371094 180.136719 C 187.925781 180.136719 187.4375 180 186.699219 179.800781 C 185.605469 179.5 184.109375 179.089844 182.542969 179.089844 C 180.78125 179.089844 179.675781 179.386719 179.058594 180.03125 C 178.4375 180.679688 178.132812 181.878906 178.132812 183.707031 C 178.132812 185.535156 178.199219 187.886719 178.707031 188.757812 C 178.84375 188.988281 178.992188 189.25 180.496094 189.25 C 185.847656 189.25 189.550781 187.714844 190.894531 187.054688 L 190.917969 187.042969 C 191.046875 186.984375 191.15625 186.925781 191.261719 186.871094 C 191.589844 186.695312 192 186.476562 192.574219 186.476562 C 193.101562 186.476562 193.582031 186.664062 193.964844 187.015625 C 194.289062 187.316406 194.515625 187.707031 194.667969 188.21875 C 195.257812 190.058594 195.882812 195.320312 195.882812 197.128906 C 195.882812 198.8125 194.785156 199.972656 193.085938 200.082031 L 193.074219 200.082031 C 189.851562 200.265625 186.097656 200.328125 182.46875 200.390625 L 182.242188 200.394531 L 182.226562 200.394531 Z M 182.226562 200.390625 " fill-opacity="1" fill-rule="nonzero"/><g clip-path="url(#4aff7ef567)"><g clip-path="url(#5893303782)"><path fill="url(#b32fead0d7)" d="M 168.007812 150.828125 L 168.007812 199.589844 L 195.082031 199.589844 L 195.082031 150.828125 Z M 168.007812 150.828125 " fill-rule="nonzero"/></g></g></svg>